<svg xmlns="http://www.w3.org/2000/svg" width="120" height="120" viewBox="0 0 120 120">
  <defs>
    <clipPath id="wave-clip">
      <circle cx="60" cy="60" r="45.80"/>
    </clipPath>
    <clipPath id="p-clip">
      <circle cx="60" cy="60" r="46.80"/>
    </clipPath>
  </defs>
  <!-- Wavy cancellation lines -->
  <g clip-path="url(#wave-clip)">
    <path d="M -4.00,21.43 L -4.00,21.08 L -2.00,20.24 L 0.00,19.50 L 2.00,18.92 L 4.00,18.55 L 6.00,18.43 L 8.00,18.55 L 10.00,18.92 L 12.00,19.50 L 14.00,20.24 L 16.00,21.08 L 18.00,21.95 L 20.00,22.77 L 22.00,23.49 L 24.00,24.03 L 26.00,24.35 L 28.00,24.42 L 30.00,24.25 L 32.00,23.83 L 34.00,23.22 L 36.00,22.45 L 38.00,21.60 L 40.00,20.74 L 42.00,19.93 L 44.00,19.25 L 46.00,18.75 L 48.00,18.47 L 50.00,18.45 L 52.00,18.67 L 54.00,19.13 L 56.00,19.78 L 58.00,20.57 L 60.00,21.43 L 62.00,22.29 L 64.00,23.08 L 66.00,23.73 L 68.00,24.18 L 70.00,24.41 L 72.00,24.38 L 74.00,24.11 L 76.00,23.61 L 78.00,22.93 L 80.00,22.12 L 82.00,21.25 L 84.00,20.40 L 86.00,19.64 L 88.00,19.02 L 90.00,18.61 L 92.00,18.43 L 94.00,18.51 L 96.00,18.83 L 98.00,19.37 L 100.00,20.08 L 102.00,20.91 L 104.00,21.78 L 106.00,22.62 L 108.00,23.36 L 110.00,23.94 L 112.00,24.30 L 114.00,24.43 L 116.00,24.30 L 118.00,23.94 L 120.00,23.36 L 122.00,22.62 L 124.00,21.78" stroke="#B8860B" stroke-width="2.5" fill="none"/>
    <path d="M -4.00,36.86 L -4.00,36.51 L -2.00,35.67 L 0.00,34.93 L 2.00,34.35 L 4.00,33.98 L 6.00,33.86 L 8.00,33.98 L 10.00,34.35 L 12.00,34.93 L 14.00,35.67 L 16.00,36.51 L 18.00,37.38 L 20.00,38.20 L 22.00,38.92 L 24.00,39.46 L 26.00,39.78 L 28.00,39.85 L 30.00,39.68 L 32.00,39.26 L 34.00,38.65 L 36.00,37.88 L 38.00,37.03 L 40.00,36.17 L 42.00,35.36 L 44.00,34.68 L 46.00,34.18 L 48.00,33.90 L 50.00,33.88 L 52.00,34.10 L 54.00,34.56 L 56.00,35.21 L 58.00,36.00 L 60.00,36.86 L 62.00,37.72 L 64.00,38.51 L 66.00,39.16 L 68.00,39.61 L 70.00,39.84 L 72.00,39.81 L 74.00,39.54 L 76.00,39.04 L 78.00,38.36 L 80.00,37.55 L 82.00,36.68 L 84.00,35.83 L 86.00,35.07 L 88.00,34.45 L 90.00,34.04 L 92.00,33.86 L 94.00,33.94 L 96.00,34.26 L 98.00,34.80 L 100.00,35.51 L 102.00,36.34 L 104.00,37.21 L 106.00,38.05 L 108.00,38.79 L 110.00,39.36 L 112.00,39.73 L 114.00,39.86 L 116.00,39.73 L 118.00,39.36 L 120.00,38.79 L 122.00,38.05 L 124.00,37.21" stroke="#B8860B" stroke-width="2.5" fill="none"/>
    <path d="M -4.00,52.29 L -4.00,51.94 L -2.00,51.10 L 0.00,50.36 L 2.00,49.78 L 4.00,49.41 L 6.00,49.29 L 8.00,49.41 L 10.00,49.78 L 12.00,50.36 L 14.00,51.10 L 16.00,51.94 L 18.00,52.81 L 20.00,53.63 L 22.00,54.34 L 24.00,54.88 L 26.00,55.20 L 28.00,55.28 L 30.00,55.10 L 32.00,54.69 L 34.00,54.08 L 36.00,53.31 L 38.00,52.46 L 40.00,51.59 L 42.00,50.79 L 44.00,50.10 L 46.00,49.60 L 48.00,49.33 L 50.00,49.31 L 52.00,49.53 L 54.00,49.99 L 56.00,50.64 L 58.00,51.43 L 60.00,52.29 L 62.00,53.15 L 64.00,53.93 L 66.00,54.58 L 68.00,55.04 L 70.00,55.27 L 72.00,55.24 L 74.00,54.97 L 76.00,54.47 L 78.00,53.79 L 80.00,52.98 L 82.00,52.11 L 84.00,51.26 L 86.00,50.49 L 88.00,49.88 L 90.00,49.47 L 92.00,49.29 L 94.00,49.37 L 96.00,49.69 L 98.00,50.23 L 100.00,50.94 L 102.00,51.76 L 104.00,52.63 L 106.00,53.47 L 108.00,54.21 L 110.00,54.79 L 112.00,55.16 L 114.00,55.29 L 116.00,55.16 L 118.00,54.79 L 120.00,54.21 L 122.00,53.47 L 124.00,52.63" stroke="#B8860B" stroke-width="2.5" fill="none"/>
    <path d="M -4.00,67.71 L -4.00,67.37 L -2.00,66.53 L 0.00,65.79 L 2.00,65.21 L 4.00,64.84 L 6.00,64.71 L 8.00,64.84 L 10.00,65.21 L 12.00,65.79 L 14.00,66.53 L 16.00,67.37 L 18.00,68.24 L 20.00,69.06 L 22.00,69.77 L 24.00,70.31 L 26.00,70.63 L 28.00,70.71 L 30.00,70.53 L 32.00,70.12 L 34.00,69.51 L 36.00,68.74 L 38.00,67.89 L 40.00,67.02 L 42.00,66.21 L 44.00,65.53 L 46.00,65.03 L 48.00,64.76 L 50.00,64.73 L 52.00,64.96 L 54.00,65.42 L 56.00,66.07 L 58.00,66.85 L 60.00,67.71 L 62.00,68.57 L 64.00,69.36 L 66.00,70.01 L 68.00,70.47 L 70.00,70.69 L 72.00,70.67 L 74.00,70.40 L 76.00,69.90 L 78.00,69.21 L 80.00,68.41 L 82.00,67.54 L 84.00,66.69 L 86.00,65.92 L 88.00,65.31 L 90.00,64.90 L 92.00,64.72 L 94.00,64.80 L 96.00,65.12 L 98.00,65.66 L 100.00,66.37 L 102.00,67.19 L 104.00,68.06 L 106.00,68.90 L 108.00,69.64 L 110.00,70.22 L 112.00,70.59 L 114.00,70.71 L 116.00,70.59 L 118.00,70.22 L 120.00,69.64 L 122.00,68.90 L 124.00,68.06" stroke="#B8860B" stroke-width="2.5" fill="none"/>
    <path d="M -4.00,83.14 L -4.00,82.79 L -2.00,81.95 L 0.00,81.21 L 2.00,80.64 L 4.00,80.27 L 6.00,80.14 L 8.00,80.27 L 10.00,80.64 L 12.00,81.21 L 14.00,81.95 L 16.00,82.79 L 18.00,83.66 L 20.00,84.49 L 22.00,85.20 L 24.00,85.74 L 26.00,86.06 L 28.00,86.14 L 30.00,85.96 L 32.00,85.55 L 34.00,84.93 L 36.00,84.17 L 38.00,83.32 L 40.00,82.45 L 42.00,81.64 L 44.00,80.96 L 46.00,80.46 L 48.00,80.19 L 50.00,80.16 L 52.00,80.39 L 54.00,80.84 L 56.00,81.49 L 58.00,82.28 L 60.00,83.14 L 62.00,84.00 L 64.00,84.79 L 66.00,85.44 L 68.00,85.90 L 70.00,86.12 L 72.00,86.10 L 74.00,85.82 L 76.00,85.32 L 78.00,84.64 L 80.00,83.83 L 82.00,82.97 L 84.00,82.12 L 86.00,81.35 L 88.00,80.74 L 90.00,80.32 L 92.00,80.15 L 94.00,80.22 L 96.00,80.54 L 98.00,81.08 L 100.00,81.80 L 102.00,82.62 L 104.00,83.49 L 106.00,84.33 L 108.00,85.07 L 110.00,85.65 L 112.00,86.02 L 114.00,86.14 L 116.00,86.02 L 118.00,85.65 L 120.00,85.07 L 122.00,84.33 L 124.00,83.49" stroke="#B8860B" stroke-width="2.5" fill="none"/>
    <path d="M -4.00,98.57 L -4.00,98.22 L -2.00,97.38 L 0.00,96.64 L 2.00,96.06 L 4.00,95.70 L 6.00,95.57 L 8.00,95.70 L 10.00,96.06 L 12.00,96.64 L 14.00,97.38 L 16.00,98.22 L 18.00,99.09 L 20.00,99.92 L 22.00,100.63 L 24.00,101.17 L 26.00,101.49 L 28.00,101.57 L 30.00,101.39 L 32.00,100.98 L 34.00,100.36 L 36.00,99.60 L 38.00,98.75 L 40.00,97.88 L 42.00,97.07 L 44.00,96.39 L 46.00,95.89 L 48.00,95.62 L 50.00,95.59 L 52.00,95.82 L 54.00,96.27 L 56.00,96.92 L 58.00,97.71 L 60.00,98.57 L 62.00,99.43 L 64.00,100.22 L 66.00,100.87 L 68.00,101.33 L 70.00,101.55 L 72.00,101.53 L 74.00,101.25 L 76.00,100.75 L 78.00,100.07 L 80.00,99.26 L 82.00,98.40 L 84.00,97.55 L 86.00,96.78 L 88.00,96.17 L 90.00,95.75 L 92.00,95.58 L 94.00,95.65 L 96.00,95.97 L 98.00,96.51 L 100.00,97.23 L 102.00,98.05 L 104.00,98.92 L 106.00,99.76 L 108.00,100.50 L 110.00,101.08 L 112.00,101.45 L 114.00,101.57 L 116.00,101.45 L 118.00,101.08 L 120.00,100.50 L 122.00,99.76 L 124.00,98.92" stroke="#B8860B" stroke-width="2.5" fill="none"/>
  </g>
  <!-- Postmark circles -->
  <circle cx="60" cy="60" r="54.00" stroke="#2D2D2D" stroke-width="4" fill="none"/>
  <circle cx="60" cy="60" r="46.80" stroke="#2D2D2D" stroke-width="1.5" fill="none"/>
  <!-- P letter clipped to circle (2-contour path with evenodd for counter) -->
  <g clip-path="url(#p-clip)">
    <path d="M28.81,120.68 L28.81,27.08 L70.70,27.08 Q99.37,27.08 99.37,53.45 Q99.37,82.06 60.16,88.08 L46.16,88.08 L46.16,120.68 Z M57.68,72.63 L46.16,72.63 L46.16,42.33 L69.59,42.33 Q81.24,42.33 81.24,53.98 Q81.24,68.38 57.68,72.63 Z" fill="#2D2D2D" fill-rule="evenodd"/>
  </g>
</svg>