<svg xmlns="http://www.w3.org/2000/svg" width="120" height="120" viewBox="0 0 120 120">
  <defs>
    <clipPath id="wave-clip"><circle cx="60" cy="60" r="45.80"/></clipPath>
    <clipPath id="p-clip"><circle cx="60" cy="60" r="52.00"/></clipPath>
  </defs>
  <g clip-path="url(#wave-clip)">
    <path d="M -4.00,36.86 L -4.00,38.85 L -2.00,38.82 L 0.00,38.74 L 2.00,38.62 L 4.00,38.46 L 6.00,38.27 L 8.00,38.05 L 10.00,37.81 L 12.00,37.54 L 14.00,37.26 L 16.00,36.97 L 18.00,36.68 L 20.00,36.40 L 22.00,36.12 L 24.00,35.86 L 26.00,35.62 L 28.00,35.40 L 30.00,35.22 L 32.00,35.07 L 34.00,34.96 L 36.00,34.89 L 38.00,34.86 L 40.00,34.87 L 42.00,34.93 L 44.00,35.02 L 46.00,35.15 L 48.00,35.33 L 50.00,35.53 L 52.00,35.76 L 54.00,36.01 L 56.00,36.28 L 58.00,36.57 L 60.00,36.86 L 62.00,37.15 L 64.00,37.43 L 66.00,37.70 L 68.00,37.96 L 70.00,38.19 L 72.00,38.39 L 74.00,38.56 L 76.00,38.69 L 78.00,38.79 L 80.00,38.84 L 82.00,38.86 L 84.00,38.83 L 86.00,38.76 L 88.00,38.64 L 90.00,38.50 L 92.00,38.31 L 94.00,38.10 L 96.00,37.86 L 98.00,37.60 L 100.00,37.32 L 102.00,37.03 L 104.00,36.74 L 106.00,36.45 L 108.00,36.17 L 110.00,35.91 L 112.00,35.66 L 114.00,35.44 L 116.00,35.25 L 118.00,35.10 L 120.00,34.98 L 122.00,34.90 L 124.00,34.86" stroke="#B8860B" stroke-width="2.5" fill="none"/>
    <path d="M -4.00,52.29 L -4.00,54.28 L -2.00,54.24 L 0.00,54.17 L 2.00,54.05 L 4.00,53.89 L 6.00,53.70 L 8.00,53.48 L 10.00,53.23 L 12.00,52.97 L 14.00,52.69 L 16.00,52.40 L 18.00,52.11 L 20.00,51.82 L 22.00,51.55 L 24.00,51.29 L 26.00,51.05 L 28.00,50.83 L 30.00,50.65 L 32.00,50.50 L 34.00,50.39 L 36.00,50.32 L 38.00,50.29 L 40.00,50.30 L 42.00,50.35 L 44.00,50.45 L 46.00,50.58 L 48.00,50.75 L 50.00,50.96 L 52.00,51.19 L 54.00,51.44 L 56.00,51.71 L 58.00,52.00 L 60.00,52.29 L 62.00,52.58 L 64.00,52.86 L 66.00,53.13 L 68.00,53.38 L 70.00,53.62 L 72.00,53.82 L 74.00,53.99 L 76.00,54.12 L 78.00,54.22 L 80.00,54.27 L 82.00,54.28 L 84.00,54.26 L 86.00,54.18 L 88.00,54.07 L 90.00,53.92 L 92.00,53.74 L 94.00,53.53 L 96.00,53.29 L 98.00,53.02 L 100.00,52.75 L 102.00,52.46 L 104.00,52.17 L 106.00,51.88 L 108.00,51.60 L 110.00,51.34 L 112.00,51.09 L 114.00,50.87 L 116.00,50.68 L 118.00,50.53 L 120.00,50.41 L 122.00,50.33 L 124.00,50.29" stroke="#B8860B" stroke-width="2.5" fill="none"/>
    <path d="M -4.00,67.71 L -4.00,69.71 L -2.00,69.67 L 0.00,69.59 L 2.00,69.47 L 4.00,69.32 L 6.00,69.13 L 8.00,68.91 L 10.00,68.66 L 12.00,68.40 L 14.00,68.12 L 16.00,67.83 L 18.00,67.54 L 20.00,67.25 L 22.00,66.98 L 24.00,66.71 L 26.00,66.47 L 28.00,66.26 L 30.00,66.08 L 32.00,65.93 L 34.00,65.82 L 36.00,65.74 L 38.00,65.72 L 40.00,65.73 L 42.00,65.78 L 44.00,65.88 L 46.00,66.01 L 48.00,66.18 L 50.00,66.38 L 52.00,66.62 L 54.00,66.87 L 56.00,67.14 L 58.00,67.42 L 60.00,67.71 L 62.00,68.00 L 64.00,68.29 L 66.00,68.56 L 68.00,68.81 L 70.00,69.04 L 72.00,69.25 L 74.00,69.42 L 76.00,69.55 L 78.00,69.65 L 80.00,69.70 L 82.00,69.71 L 84.00,69.68 L 86.00,69.61 L 88.00,69.50 L 90.00,69.35 L 92.00,69.17 L 94.00,68.95 L 96.00,68.71 L 98.00,68.45 L 100.00,68.18 L 102.00,67.89 L 104.00,67.60 L 106.00,67.31 L 108.00,67.03 L 110.00,66.77 L 112.00,66.52 L 114.00,66.30 L 116.00,66.11 L 118.00,65.95 L 120.00,65.83 L 122.00,65.76 L 124.00,65.72" stroke="#B8860B" stroke-width="2.5" fill="none"/>
    <path d="M -4.00,83.14 L -4.00,85.14 L -2.00,85.10 L 0.00,85.02 L 2.00,84.90 L 4.00,84.75 L 6.00,84.56 L 8.00,84.34 L 10.00,84.09 L 12.00,83.83 L 14.00,83.55 L 16.00,83.26 L 18.00,82.97 L 20.00,82.68 L 22.00,82.40 L 24.00,82.14 L 26.00,81.90 L 28.00,81.69 L 30.00,81.50 L 32.00,81.36 L 34.00,81.24 L 36.00,81.17 L 38.00,81.14 L 40.00,81.16 L 42.00,81.21 L 44.00,81.31 L 46.00,81.44 L 48.00,81.61 L 50.00,81.81 L 52.00,82.04 L 54.00,82.30 L 56.00,82.57 L 58.00,82.85 L 60.00,83.14 L 62.00,83.43 L 64.00,83.72 L 66.00,83.99 L 68.00,84.24 L 70.00,84.47 L 72.00,84.67 L 74.00,84.85 L 76.00,84.98 L 78.00,85.07 L 80.00,85.13 L 82.00,85.14 L 84.00,85.11 L 86.00,85.04 L 88.00,84.93 L 90.00,84.78 L 92.00,84.60 L 94.00,84.38 L 96.00,84.14 L 98.00,83.88 L 100.00,83.60 L 102.00,83.32 L 104.00,83.03 L 106.00,82.74 L 108.00,82.46 L 110.00,82.19 L 112.00,81.95 L 114.00,81.73 L 116.00,81.54 L 118.00,81.38 L 120.00,81.26 L 122.00,81.18 L 124.00,81.15" stroke="#B8860B" stroke-width="2.5" fill="none"/>
  </g>
  <circle cx="60" cy="60" r="54.00" stroke="#E8E8E8" stroke-width="4" fill="none"/>
  <circle cx="60" cy="60" r="46.80" stroke="#E8E8E8" stroke-width="1.5" fill="none"/>
  <g clip-path="url(#p-clip)">
    <path d="M50.4336 100.0800L35.9414 100.0800L35.9414 21.8769L70.9414 21.8769Q94.8945 21.8769 94.8945 43.9159L94.8945 43.9159Q94.8945 67.8144 62.1367 72.8456L62.1367 72.8456L60.0586 59.9394Q79.7461 56.3847 79.7461 44.3534L79.7461 44.3534Q79.7461 34.6191 70.0117 34.6191L70.0117 34.6191L50.4336 34.6191L50.4336 100.0800Z" fill="#E8E8E8" fill-rule="evenodd"/>
  </g>
</svg>