<svg xmlns="http://www.w3.org/2000/svg" width="262.9" height="129.5" viewBox="0 0 262.9 129.5">
  <defs>
    <clipPath id="o-clip">
      <circle cx="89.22" cy="71.82" r="22.61"/>
    </clipPath>
  </defs>
  <!-- Wavy cancellation lines behind the text -->
  <g clip-path="url(#o-clip)">
    <path d="M 56.61,64.28 L 56.61,67.12 L 58.61,67.09 L 60.61,65.76 L 62.61,63.74 L 64.61,61.98 L 66.61,61.28 L 68.61,61.98 L 70.61,63.74 L 72.61,65.76 L 74.61,67.09 L 76.61,67.12 L 78.61,65.83 L 80.61,63.83 L 82.61,62.03 L 84.61,61.28 L 86.61,61.92 L 88.61,63.65 L 90.61,65.68 L 92.61,67.05 L 94.61,67.14 L 96.61,65.91 L 98.61,63.91 L 100.61,62.09 L 102.61,61.29 L 104.61,61.87 L 106.61,63.57 L 108.61,65.60 L 110.61,67.02 L 112.61,67.17 L 114.61,65.98 L 116.61,64.00 L 118.61,62.15 L 120.61,61.29" stroke="#B8860B" stroke-width="2.5" fill="none"/>
    <path d="M 56.61,71.82 L 56.61,74.65 L 58.61,74.62 L 60.61,73.29 L 62.61,71.28 L 64.61,69.51 L 66.61,68.82 L 68.61,69.51 L 70.61,71.28 L 72.61,73.29 L 74.61,74.62 L 76.61,74.65 L 78.61,73.37 L 80.61,71.36 L 82.61,69.57 L 84.61,68.82 L 86.61,69.46 L 88.61,71.19 L 90.61,73.21 L 92.61,74.59 L 94.61,74.68 L 96.61,73.44 L 98.61,71.45 L 100.61,69.63 L 102.61,68.82 L 104.61,69.40 L 106.61,71.10 L 108.61,73.14 L 110.61,74.55 L 112.61,74.70 L 114.61,73.51 L 116.61,71.54 L 118.61,69.69 L 120.61,68.83" stroke="#B8860B" stroke-width="2.5" fill="none"/>
    <path d="M 56.61,79.35 L 56.61,82.19 L 58.61,82.16 L 60.61,80.83 L 62.61,78.81 L 64.61,77.05 L 66.61,76.35 L 68.61,77.05 L 70.61,78.81 L 72.61,80.83 L 74.61,82.16 L 76.61,82.19 L 78.61,80.90 L 80.61,78.90 L 82.61,77.10 L 84.61,76.35 L 86.61,76.99 L 88.61,78.73 L 90.61,80.75 L 92.61,82.12 L 94.61,82.21 L 96.61,80.98 L 98.61,78.99 L 100.61,77.16 L 102.61,76.36 L 104.61,76.94 L 106.61,78.64 L 108.61,80.67 L 110.61,82.09 L 112.61,82.24 L 114.61,81.05 L 116.61,79.07 L 118.61,77.22 L 120.61,76.36" stroke="#B8860B" stroke-width="2.5" fill="none"/>
  </g>
  <!-- Word "postal" as vector path -->
  <path d="M35.2344 60.3125L35.2344 81.7188Q39.1016 83.8281 43.5547 83.8281L43.5547 83.8281Q52.8125 83.8281 52.8125 70.8203L52.8125 70.8203Q52.8125 59.7656 42.5781 59.7656L42.5781 59.7656Q38.1641 59.7656 35.2344 60.3125L35.2344 60.3125ZM24.8828 107.2656L24.8828 53.0859Q33.0469 51.4063 42.1484 51.4063L42.1484 51.4063Q63.0469 51.4063 63.0469 70.8984L63.0469 70.8984Q63.0469 92.4219 43.5938 92.4219L43.5938 92.4219Q39.4531 92.4219 35.2344 90.4688L35.2344 90.4688L35.2344 107.2656L24.8828 107.2656ZM79.2578 71.7578Q79.2578 84.6094 89.2188 84.6094L89.2188 84.6094Q99.1797 84.6094 99.1797 71.7578L99.1797 71.7578Q99.1797 59.2188 89.2188 59.2188L89.2188 59.2188Q79.2578 59.2188 79.2578 71.7578L79.2578 71.7578ZM68.9063 71.9141L68.9063 71.9141Q68.9063 51.2891 89.2188 51.2891L89.2188 51.2891Q109.5313 51.2891 109.5313 71.9141L109.5313 71.9141Q109.5313 92.5000 89.2188 92.5000L89.2188 92.5000Q68.9844 92.5000 68.9063 71.9141ZM117.3438 90.4688L117.3438 90.4688L117.3438 81.8750Q124.1797 84.6094 133.1250 84.6094L133.1250 84.6094Q139.8047 84.6094 139.8047 80.3125L139.8047 80.3125Q139.8047 76.2109 135.3125 76.2109L135.3125 76.2109L127.8906 76.2109Q115.3906 76.2109 115.3906 63.9063L115.3906 63.9063Q115.3906 51.0156 133.6328 51.0156L133.6328 51.0156Q141.3672 51.0156 148.2031 53.3594L148.2031 53.3594L148.2031 61.9531Q141.3672 59.2188 133.3594 59.2188L133.3594 59.2188Q124.9609 59.2188 124.9609 63.5156L124.9609 63.5156Q124.9609 67.6172 129.8438 67.6172L129.8438 67.6172L136.4844 67.6172Q150.1563 67.6172 150.1563 79.9219L150.1563 79.9219Q150.1563 92.8125 132.7344 92.8125L132.7344 92.8125Q124.1797 92.8125 117.3438 90.4688ZM156.7969 81.3672L156.7969 44.7656L164.4531 44.7656L166.0156 51.4063L176.3281 51.4063L176.3281 59.6094L167.1484 59.6094L167.1484 78.4766Q167.1484 84.2188 172.1094 84.2188L172.1094 84.2188L176.3281 84.2188L176.3281 92.4219L167.1094 92.4219Q156.7969 92.4219 156.7969 81.3672L156.7969 81.3672ZM181.4063 79.6484L181.4063 79.6484Q181.4063 67.4219 199.2188 67.4219L199.2188 67.4219Q203.3984 67.4219 207.5781 68.2031L207.5781 68.2031L207.5781 65.1172Q207.5781 59.6094 199.6484 59.6094L199.6484 59.6094Q192.9297 59.6094 184.7266 61.5625L184.7266 61.5625L184.7266 53.3594Q192.9297 51.4063 199.6484 51.4063L199.6484 51.4063Q217.9297 51.4063 217.9297 64.9219L217.9297 64.9219L217.9297 92.4219L211.9141 92.4219L208.2422 88.7500Q202.8906 92.4219 196.4453 92.4219L196.4453 92.4219Q181.4063 92.4219 181.4063 79.6484ZM207.5781 75.2344Q203.6719 74.4531 199.2188 74.4531L199.2188 74.4531Q191.7578 74.4531 191.7578 79.5313L191.7578 79.5313Q191.7578 85 198.0078 85L198.0078 85Q203.1641 85 207.5781 81.7969L207.5781 81.7969L207.5781 75.2344ZM227.6953 36.5625L238.0469 36.5625L238.0469 92.4219L227.6953 92.4219L227.6953 36.5625Z" fill="#E8E8E8" fill-rule="evenodd"/>
  <!-- Postmark circles -->
  <circle cx="89.22" cy="71.82" r="24.61" stroke="#E8E8E8" stroke-width="3.5" fill="none"/>
  <circle cx="89.22" cy="71.82" r="19.61" stroke="#E8E8E8" stroke-width="1.2" fill="none"/>
</svg>