<?xml version="1.0" encoding="UTF-8"?>
<!DOCTYPE svg PUBLIC "-//W3C//DTD SVG 1.1//EN" "http://www.w3.org/Graphics/SVG/1.1/DTD/svg11.dtd">
<svg version="1.1" xmlns="http://www.w3.org/2000/svg" xmlns:xlink="http://www.w3.org/1999/xlink" x="0" y="0" width="654.267" height="285.347" viewBox="0, 0, 654.267, 285.347">
  <g id="Layer_1">
    <path d="M654.267,47.076 L654.267,64.036 C646.458,69.1 642.185,77.804 641.953,86.973 C641.978,96.214 646.638,104.757 654.267,109.91 L654.267,123.66 C646.458,128.723 642.185,137.428 641.953,146.597 C641.978,155.838 646.638,164.381 654.267,169.534 L654.267,185.216 C646.458,190.28 642.185,198.984 641.953,208.154 C641.978,217.395 646.638,225.937 654.267,231.091 L654.267,248.051 L639.67,248.051 C635.363,237.737 625.345,231.67 614.37,231.392 C603.493,231.454 593.327,237.979 589.069,248.051 L580.046,248.051 C575.739,237.737 565.721,231.67 554.746,231.392 C543.869,231.454 533.704,237.979 529.445,248.051 L518.49,248.051 C514.183,237.737 504.164,231.67 493.189,231.392 C482.312,231.454 472.147,237.979 467.888,248.051 L453.292,248.051 L453.292,231.091 C461.101,226.027 465.374,217.323 465.606,208.154 C465.58,198.912 460.921,190.37 453.292,185.216 L453.292,169.534 C461.101,164.47 465.374,155.766 465.606,146.597 C465.58,137.356 460.921,128.813 453.292,123.66 L453.292,109.91 C461.101,104.846 465.374,96.142 465.606,86.973 C465.58,77.732 460.921,69.189 453.292,64.036 L453.292,47.076 L468.76,47.076 C473.635,56.378 482.796,61.638 493.189,61.901 C503.523,61.884 512.729,56.076 517.618,47.076 L530.317,47.076 C535.192,56.378 544.352,61.638 554.746,61.901 C565.08,61.884 574.286,56.076 579.175,47.076 L589.941,47.076 C594.816,56.377 603.976,61.638 614.37,61.901 C624.704,61.884 633.91,56.076 638.798,47.076 L654.267,47.076 z" fill="#323330"/>
    <g>
      <path d="M477.997,71.781 L630.562,71.781 L630.562,224.346 L477.997,224.346 L477.997,71.781 z" fill="#F0DB4F"/>
      <path d="M477.997,71.781 L630.562,71.781 L630.562,224.346 L477.997,224.346 L477.997,71.781 z" fill-opacity="0" stroke="#000000" stroke-width="1"/>
    </g>
    <g>
      <path d="M584.366,178.075 L588.803,178.075 L588.803,206.138 Q588.803,208.397 588.122,210.084 Q587.442,211.772 586.176,212.902 Q584.91,214.031 583.141,214.603 Q581.372,215.174 579.167,215.174 Q577.289,215.147 575.996,214.861 Q574.703,214.576 574.05,214.276 L574.05,210.357 Q575.057,210.765 576.241,210.996 Q577.425,211.228 578.786,211.228 Q580.011,211.228 581.045,210.955 Q582.079,210.683 582.814,210.03 Q583.549,209.377 583.958,208.288 Q584.366,207.199 584.366,205.593 z" fill="#323330"/>
      <path d="M601.296,187.71 Q601.296,189.316 601.949,190.364 Q602.603,191.412 603.705,192.092 Q604.807,192.773 606.264,193.208 Q607.72,193.644 609.299,194.025 Q611.422,194.542 613.477,195.168 Q615.532,195.794 617.138,196.897 Q618.744,197.999 619.737,199.768 Q620.731,201.538 620.731,204.314 Q620.731,207.145 619.683,209.2 Q618.635,211.255 616.77,212.575 Q614.906,213.895 612.32,214.535 Q609.734,215.174 606.658,215.174 Q605.243,215.174 603.76,214.997 Q602.276,214.821 600.929,214.521 Q599.581,214.222 598.493,213.841 Q597.404,213.46 596.778,213.079 L596.778,209.023 Q597.758,209.513 598.983,209.921 Q600.207,210.329 601.514,210.615 Q602.82,210.901 604.154,211.064 Q605.488,211.228 606.658,211.228 Q608.564,211.228 610.292,210.901 Q612.021,210.574 613.327,209.812 Q614.634,209.05 615.396,207.73 Q616.158,206.41 616.158,204.423 Q616.158,202.79 615.491,201.728 Q614.824,200.667 613.708,199.972 Q612.592,199.278 611.136,198.843 Q609.68,198.407 608.074,198.026 Q605.951,197.536 603.923,196.924 Q601.895,196.311 600.303,195.223 Q598.71,194.134 597.744,192.419 Q596.778,190.704 596.778,188.037 Q596.778,185.26 597.758,183.26 Q598.738,181.259 600.425,179.953 Q602.113,178.646 604.372,178.02 Q606.631,177.394 609.19,177.394 Q612.102,177.394 614.62,177.952 Q617.138,178.51 619.234,179.408 L619.234,183.518 Q616.974,182.566 614.566,181.967 Q612.157,181.368 609.407,181.341 Q607.339,181.341 605.815,181.79 Q604.29,182.239 603.283,183.069 Q602.276,183.9 601.786,185.084 Q601.296,186.268 601.296,187.71 z" fill="#323330"/>
    </g>
    <path d="M428.552,227.395 C366.265,227.395 315.771,176.902 315.771,114.614 C315.771,52.327 366.265,1.833 428.552,1.833 C490.84,1.833 541.333,52.327 541.333,114.614 C541.333,176.902 490.84,227.395 428.552,227.395 z" fill="#FFFFFF" fill-opacity="0.796"/>
    <path d="M112.598,113.134 C100.439,111.077 91.496,108.469 91.405,108.442 C91.405,108.442 91.061,108.334 90.37,108.14 C89.678,107.948 88.659,107.673 87.362,107.356 C84.764,106.72 81.057,105.911 76.642,105.225 C67.823,103.852 56.184,102.992 45.051,104.939 C28.036,107.907 12.325,113.29 5.576,115.787 C3.366,116.605 2.133,117.104 2.086,117.122 L0.5,113.22 C0.58,113.192 21.103,104.845 44.325,100.787 C67.955,96.695 92.499,104.392 92.621,104.406 C92.624,104.408 93.15,104.562 94.154,104.832 C95.16,105.102 96.629,105.484 98.471,105.932 C102.158,106.825 107.342,107.971 113.301,108.982 C125.212,111.005 140.25,112.445 152.445,110.304 C164.696,108.174 177.127,102.526 187.529,96.757 C197.955,90.982 206.28,85.141 210.719,82.525 C218.94,77.703 235.32,66.834 256.138,63.197 C256.872,63.066 257.614,62.947 258.362,62.839 C279.981,59.661 292.519,62.274 292.72,62.318 L291.852,66.439 C291.851,66.439 291.83,66.436 291.748,66.42 C291.664,66.404 291.536,66.382 291.359,66.351 C291.009,66.291 290.475,66.204 289.761,66.113 C288.334,65.926 286.19,65.706 283.385,65.58 C277.771,65.33 269.502,65.462 258.972,67.007 C258.264,67.111 257.563,67.224 256.861,67.348 C237.046,70.803 221.212,81.231 212.857,86.156 C208.715,88.589 200.18,94.564 189.572,100.443 C178.94,106.329 166.17,112.18 153.171,114.456 C140.111,116.722 124.764,115.187 112.598,113.134 z M2.084,117.123 C2.084,117.123 2.084,117.123 2.086,117.122 L2.086,117.123 L2.084,117.123" fill="#51554E"/>
    <path d="M118.007,144.128 C105.85,142.07 96.904,139.459 96.817,139.435 C96.815,139.436 96.472,139.328 95.78,139.137 C95.089,138.941 94.068,138.667 92.77,138.348 C90.174,137.714 86.468,136.904 82.053,136.22 C73.232,134.847 61.592,133.984 50.462,135.931 C33.446,138.9 17.737,144.283 10.986,146.782 C8.778,147.597 7.545,148.096 7.497,148.116 L5.911,144.213 C5.989,144.184 26.512,135.839 49.736,131.781 C73.366,127.69 97.909,135.386 98.032,135.402 C98.032,135.402 98.558,135.555 99.565,135.825 C100.568,136.097 102.038,136.48 103.883,136.925 C107.566,137.817 112.753,138.966 118.71,139.975 C130.62,141.998 145.662,143.436 157.855,141.295 C170.106,139.166 182.536,133.519 192.938,127.749 C203.363,121.975 211.69,116.134 216.129,113.518 C224.348,108.696 240.73,97.826 261.547,94.19 C262.282,94.062 263.025,93.941 263.772,93.832 C285.39,90.656 297.928,93.266 298.131,93.311 L297.261,97.433 C297.261,97.435 297.239,97.429 297.158,97.413 C297.075,97.397 296.945,97.375 296.77,97.343 C296.419,97.284 295.884,97.197 295.172,97.105 C293.743,96.918 291.601,96.698 288.795,96.575 C283.181,96.324 274.912,96.455 264.381,98.001 C263.674,98.105 262.972,98.217 262.272,98.34 C242.456,101.795 226.62,112.224 218.268,117.149 C214.125,119.581 205.591,125.558 194.981,131.436 C184.35,137.322 171.58,143.174 158.581,145.449 C145.521,147.715 130.172,146.18 118.007,144.128 z M7.495,148.116 L7.497,148.116 L7.495,148.116" fill="#51554E"/>
    <path d="M123.418,175.122 C111.26,173.062 102.314,170.454 102.226,170.43 C102.226,170.43 101.881,170.321 101.188,170.127 C100.498,169.934 99.478,169.659 98.18,169.341 C95.584,168.708 91.876,167.898 87.465,167.214 C78.641,165.839 67.003,164.977 55.872,166.925 C38.856,169.894 23.146,175.275 16.394,177.775 C14.187,178.59 12.955,179.091 12.908,179.109 L11.32,175.207 C11.398,175.176 31.923,166.832 55.146,162.773 C78.776,158.682 103.318,166.378 103.442,166.396 C103.442,166.396 103.97,166.549 104.974,166.82 C105.98,167.09 107.448,167.471 109.291,167.917 C112.978,168.811 118.163,169.959 124.121,170.969 C136.031,172.992 151.07,174.43 163.266,172.291 C175.514,170.158 187.946,164.513 198.349,158.745 C208.772,152.967 217.1,147.125 221.541,144.512 C229.757,139.69 246.141,128.82 266.956,125.183 C267.69,125.054 268.433,124.935 269.181,124.826 C290.801,121.648 303.338,124.26 303.54,124.305 L302.672,128.425 C302.669,128.425 302.65,128.421 302.566,128.407 C302.485,128.389 302.353,128.366 302.178,128.337 C301.831,128.277 301.295,128.192 300.581,128.099 C299.153,127.912 297.01,127.692 294.205,127.568 C288.591,127.316 280.321,127.448 269.794,128.995 C269.084,129.097 268.38,129.214 267.682,129.333 C247.867,132.791 232.03,143.218 223.677,148.142 C219.535,150.575 210.999,156.551 200.39,162.43 C189.761,168.316 176.99,174.168 163.99,176.442 C150.933,178.709 135.583,177.173 123.418,175.122 z M12.905,179.109 C12.905,179.109 12.905,179.109 12.908,179.109 L12.905,179.109" fill="#51554E"/>
    <path d="M128.828,206.115 C116.668,204.056 107.725,201.446 107.636,201.423 C107.635,201.423 107.291,201.315 106.599,201.121 C105.91,200.926 104.889,200.654 103.591,200.337 C100.995,199.7 97.286,198.889 92.873,198.206 C84.051,196.832 72.413,195.97 61.28,197.918 C44.266,200.887 28.556,206.272 21.806,208.768 C19.598,209.584 18.364,210.083 18.318,210.103 L16.73,206.198 C16.809,206.17 37.331,197.825 60.557,193.767 C84.185,189.676 108.728,197.373 108.85,197.388 C108.85,197.388 109.378,197.542 110.385,197.81 C111.389,198.083 112.858,198.464 114.701,198.912 C118.386,199.806 123.571,200.951 129.53,201.96 C141.44,203.985 156.481,205.423 168.674,203.283 C180.925,201.151 193.356,195.506 203.758,189.737 C214.184,183.959 222.511,178.123 226.949,175.505 C235.168,170.684 251.549,159.812 272.368,156.177 C273.103,156.048 273.845,155.929 274.59,155.819 C296.212,152.642 308.748,155.253 308.949,155.296 L308.081,159.422 C308.08,159.422 308.058,159.415 307.977,159.401 C307.896,159.384 307.765,159.36 307.589,159.33 C307.239,159.271 306.704,159.184 305.99,159.092 C304.564,158.905 302.42,158.685 299.616,158.561 C294,158.312 285.73,158.442 275.201,159.988 C274.495,160.09 273.792,160.204 273.092,160.327 C253.276,163.782 237.439,174.21 229.088,179.138 C224.944,181.569 216.41,187.542 205.802,193.423 C195.17,199.309 182.399,205.16 169.4,207.436 C156.342,209.704 140.994,208.165 128.828,206.115 z M18.316,210.103 C18.316,210.103 18.316,210.103 18.318,210.103 L18.316,210.103" fill="#51554E"/>
    <path d="M134.237,237.108 C122.079,235.049 113.133,232.442 113.046,232.416 C113.043,232.416 112.702,232.308 112.009,232.117 C111.318,231.923 110.297,231.647 109,231.329 C106.403,230.694 102.696,229.884 98.283,229.199 C89.461,227.825 77.822,226.964 66.689,228.912 C49.677,231.88 33.968,237.265 27.215,239.76 C25.006,240.577 23.774,241.077 23.727,241.096 L22.14,237.192 C22.218,237.165 42.743,228.818 65.965,224.761 C89.596,220.669 114.138,228.365 114.261,228.38 C114.261,228.38 114.788,228.533 115.794,228.807 C116.797,229.075 118.269,229.458 120.113,229.906 C123.798,230.797 128.984,231.944 134.939,232.953 C146.85,234.979 161.889,236.417 174.085,234.275 C186.337,232.145 198.764,226.501 209.167,220.73 C219.593,214.953 227.92,209.113 232.359,206.498 C240.578,201.677 256.959,190.807 277.776,187.17 C278.512,187.04 279.255,186.921 280.001,186.813 C301.621,183.638 314.158,186.246 314.361,186.291 L313.489,190.414 C313.489,190.414 313.468,190.408 313.386,190.392 C313.305,190.379 313.174,190.353 313,190.324 C312.648,190.262 312.114,190.18 311.401,190.087 C309.975,189.899 307.831,189.677 305.025,189.553 C299.41,189.303 291.141,189.433 280.612,190.982 C279.904,191.084 279.201,191.198 278.502,191.322 C258.686,194.776 242.851,205.205 234.497,210.13 C230.354,212.562 221.818,218.536 211.212,224.417 C200.581,230.3 187.811,236.152 174.811,238.427 C161.75,240.696 146.403,239.161 134.237,237.108 z M23.724,241.097 C23.724,241.097 23.724,241.097 23.727,241.096 L23.727,241.097 L23.724,241.097" fill="#51554E"/>
    <path d="M316.267,135.096 C305.364,72.62 347.168,13.136 409.644,2.229 C472.119,-8.675 531.603,33.13 542.511,95.606 C553.414,158.082 511.611,217.566 449.133,228.472 C386.658,239.376 327.174,197.572 316.267,135.096 z M338.886,51.746 C322.604,74.914 315.164,104.273 320.417,134.373 C325.675,164.47 342.617,189.572 365.786,205.854 C388.955,222.133 418.313,229.575 448.409,224.322 C478.508,219.066 503.607,202.12 519.891,178.956 C536.173,155.785 543.61,126.429 538.359,96.331 C533.105,66.231 516.16,41.132 492.991,24.846 C469.822,8.567 440.465,1.128 410.369,6.381 C380.269,11.636 355.169,28.58 338.886,51.746" fill="#51554E"/>
    <path d="M352.077,128.847 C344.623,86.146 373.194,45.493 415.893,38.038 C458.594,30.585 499.248,59.156 506.701,101.856 C514.153,144.556 485.584,185.212 442.885,192.663 C400.183,200.117 359.53,171.546 352.077,128.847 z M368.625,72.648 C357.693,88.205 352.7,107.912 356.228,128.121 C359.756,148.333 371.13,165.179 386.686,176.115 C402.243,187.044 421.948,192.04 442.159,188.514 C462.367,184.984 479.218,173.61 490.153,158.053 C501.083,142.496 506.078,122.791 502.55,102.582 L502.551,102.58 C499.022,82.372 487.648,65.521 472.093,54.587 C456.536,43.656 436.827,38.662 416.618,42.19 C396.407,45.718 379.559,57.091 368.625,72.648" fill="#51554E"/>
    <path d="M360.226,86.95 L359.763,82.659 L490.815,68.54 L491.276,72.829 L360.226,86.95" fill="#51554E"/>
    <path d="M368.923,164.501 L368.404,160.369 L498.759,143.959 L499.283,148.093 L368.923,164.501" fill="#51554E"/>
    <path d="M338.914,162.073 L331.291,157.154 L339.831,154.093 L342.152,145.321 L347.702,152.499 L356.763,151.995 L351.65,159.491 L353.964,165.465 L352.735,165.942 L353.103,164.677 L352.735,165.942 L353.964,165.465 L354.926,167.954 L346.218,165.408 L339.183,171.139 L338.914,162.073 z M342.022,156.105 L337.202,157.832 L341.504,160.61 L341.659,165.728 L345.628,162.493 L350.546,163.929 L348.694,159.152 L351.578,154.922 L346.465,155.206 L343.334,151.156 L342.022,156.105" fill="#51554E"/>
    <path d="M411.159,25.419 L403.903,19.975 L412.638,17.524 L415.571,8.938 L420.601,16.49 L429.675,16.626 L424.045,23.743 L425.932,29.865 L424.673,30.254 L425.129,29.019 L424.673,30.254 L425.932,29.865 L426.717,32.416 L418.21,29.262 L410.788,34.482 L411.159,25.419 z M414.68,19.686 L409.751,21.069 L413.846,24.143 L413.639,29.26 L417.827,26.313 L422.631,28.092 L421.121,23.196 L424.297,19.18 L419.176,19.103 L416.338,14.842 L414.68,19.686" fill="#51554E"/>
    <path d="M522.693,144.378 L515.093,149.332 L515.784,140.283 L508.723,134.589 L517.537,132.451 L520.773,123.973 L525.535,131.696 L534.597,132.154 L528.721,139.067 L531.086,147.828 L522.693,144.378 z M529.117,145.595 L529.621,144.378 L529.117,145.595 z M527.152,143.362 L525.817,138.419 L529.134,134.515 L524.017,134.256 L521.332,129.896 L519.504,134.681 L514.529,135.889 L518.516,139.104 L518.124,144.212 L522.416,141.414 L527.152,143.362" fill="#51554E"/>
    <g>
      <path d="M367.774,125.993 Q367.135,126.075 366.512,126.135 Q365.89,126.195 365.34,126.206 L366.636,136.338 L361.889,136.945 L358.574,111.024 L366.052,110.067 Q367.931,109.827 369.357,109.812 Q370.783,109.797 371.929,109.985 Q374.687,110.459 376.349,112.058 Q378.01,113.657 378.362,116.408 Q378.603,118.287 378.02,119.888 Q377.437,121.488 376.079,122.725 Q374.721,123.962 372.642,124.799 Q370.564,125.636 367.774,125.993 z M364.83,122.215 Q365.244,122.221 365.877,122.169 Q366.511,122.118 367.189,122.031 Q369.107,121.786 370.365,121.31 Q371.623,120.834 372.347,120.18 Q373.071,119.527 373.319,118.697 Q373.567,117.868 373.448,116.938 Q373.302,115.795 372.673,115.029 Q372.043,114.263 370.686,113.964 Q369.978,113.818 368.966,113.839 Q367.955,113.86 366.502,114.046 L363.828,114.388 z" fill="#323330"/>
      <path d="M367.774,125.993 Q367.135,126.075 366.512,126.135 Q365.89,126.195 365.34,126.206 L366.636,136.338 L361.889,136.945 L358.574,111.024 L366.052,110.067 Q367.931,109.827 369.357,109.812 Q370.783,109.797 371.929,109.985 Q374.687,110.459 376.349,112.058 Q378.01,113.657 378.362,116.408 Q378.603,118.287 378.02,119.888 Q377.437,121.488 376.079,122.725 Q374.721,123.962 372.642,124.799 Q370.564,125.636 367.774,125.993 z M364.83,122.215 Q365.244,122.221 365.877,122.169 Q366.511,122.118 367.189,122.031 Q369.107,121.786 370.365,121.31 Q371.623,120.834 372.347,120.18 Q373.071,119.527 373.319,118.697 Q373.567,117.868 373.448,116.938 Q373.302,115.795 372.673,115.029 Q372.043,114.263 370.686,113.964 Q369.978,113.818 368.966,113.839 Q367.955,113.86 366.502,114.046 L363.828,114.388 z" fill-opacity="0" stroke="#323330" stroke-width="1.5"/>
    </g>
    <g>
      <path d="M403.26,118.481 Q402.958,116.117 402.15,114.419 Q401.342,112.721 400.164,111.67 Q398.986,110.62 397.497,110.22 Q396.009,109.819 394.323,110.035 Q392.638,110.25 391.298,111.013 Q389.958,111.775 389.082,113.088 Q388.207,114.401 387.852,116.248 Q387.498,118.095 387.8,120.458 Q388.102,122.822 388.91,124.52 Q389.718,126.219 390.895,127.259 Q392.072,128.3 393.562,128.71 Q395.051,129.12 396.737,128.905 Q398.422,128.689 399.761,127.917 Q401.1,127.145 401.977,125.842 Q402.853,124.539 403.208,122.692 Q403.562,120.845 403.26,118.481 z M408.162,117.854 Q408.541,120.818 408.014,123.396 Q407.487,125.974 406.097,127.963 Q404.708,129.953 402.48,131.242 Q400.253,132.531 397.25,132.915 Q394.247,133.299 391.767,132.612 Q389.286,131.925 387.441,130.35 Q385.595,128.774 384.436,126.412 Q383.278,124.049 382.899,121.085 Q382.52,118.121 383.046,115.543 Q383.573,112.965 384.963,110.976 Q386.353,108.987 388.58,107.698 Q390.808,106.409 393.81,106.025 Q396.813,105.64 399.294,106.327 Q401.774,107.014 403.62,108.59 Q405.465,110.165 406.624,112.528 Q407.783,114.89 408.162,117.854 z" fill="#323330"/>
      <path d="M403.26,118.481 Q402.958,116.117 402.15,114.419 Q401.342,112.721 400.164,111.67 Q398.986,110.62 397.497,110.22 Q396.009,109.819 394.323,110.035 Q392.638,110.25 391.298,111.013 Q389.958,111.775 389.082,113.088 Q388.207,114.401 387.852,116.248 Q387.498,118.095 387.8,120.458 Q388.102,122.822 388.91,124.52 Q389.718,126.219 390.895,127.259 Q392.072,128.3 393.562,128.71 Q395.051,129.12 396.737,128.905 Q398.422,128.689 399.761,127.917 Q401.1,127.145 401.977,125.842 Q402.853,124.539 403.208,122.692 Q403.562,120.845 403.26,118.481 z M408.162,117.854 Q408.541,120.818 408.014,123.396 Q407.487,125.974 406.097,127.963 Q404.708,129.953 402.48,131.242 Q400.253,132.531 397.25,132.915 Q394.247,133.299 391.767,132.612 Q389.286,131.925 387.441,130.35 Q385.595,128.774 384.436,126.412 Q383.278,124.049 382.899,121.085 Q382.52,118.121 383.046,115.543 Q383.573,112.965 384.963,110.976 Q386.353,108.987 388.58,107.698 Q390.808,106.409 393.81,106.025 Q396.813,105.64 399.294,106.327 Q401.774,107.014 403.62,108.59 Q405.465,110.165 406.624,112.528 Q407.783,114.89 408.162,117.854 z" fill-opacity="0" stroke="#323330" stroke-width="1.5"/>
    </g>
    <g>
      <path d="M426.653,121.101 Q426.526,120.113 425.964,119.565 Q425.401,119.016 424.519,118.735 Q423.636,118.454 422.569,118.345 Q421.501,118.235 420.329,118.149 Q418.775,118.013 417.342,117.733 Q415.908,117.454 414.759,116.784 Q413.61,116.114 412.831,114.953 Q412.053,113.793 411.815,111.933 Q411.552,109.879 412.075,108.267 Q412.597,106.654 413.699,105.499 Q414.802,104.344 416.395,103.638 Q417.989,102.932 420.061,102.667 Q422.134,102.402 424.279,102.541 Q426.423,102.68 428.016,103.126 L428.536,107.195 Q426.42,106.658 424.524,106.536 Q422.628,106.415 421.001,106.623 Q418.656,106.923 417.496,107.937 Q416.337,108.952 416.555,110.657 Q416.681,111.645 417.179,112.231 Q417.678,112.817 418.448,113.142 Q419.218,113.467 420.18,113.6 Q421.142,113.733 422.215,113.812 Q423.907,113.95 425.466,114.213 Q427.026,114.477 428.293,115.142 Q429.559,115.807 430.404,117.028 Q431.25,118.249 431.51,120.283 Q431.778,122.375 431.198,124.005 Q430.619,125.634 429.323,126.814 Q428.026,127.994 426.054,128.739 Q424.082,129.483 421.66,129.793 Q419.549,130.063 417.451,129.908 Q415.354,129.753 413.901,129.171 L413.389,125.16 Q415.413,125.748 417.282,125.893 Q419.152,126.038 421.089,125.79 Q422.213,125.646 423.274,125.323 Q424.336,125.001 425.141,124.445 Q425.946,123.889 426.371,123.057 Q426.796,122.225 426.653,121.101 z" fill="#323330"/>
      <path d="M426.653,121.101 Q426.526,120.113 425.964,119.565 Q425.401,119.016 424.519,118.735 Q423.636,118.454 422.569,118.345 Q421.501,118.235 420.329,118.149 Q418.775,118.013 417.342,117.733 Q415.908,117.454 414.759,116.784 Q413.61,116.114 412.831,114.953 Q412.053,113.793 411.815,111.933 Q411.552,109.879 412.075,108.267 Q412.597,106.654 413.699,105.499 Q414.802,104.344 416.395,103.638 Q417.989,102.932 420.061,102.667 Q422.134,102.402 424.279,102.541 Q426.423,102.68 428.016,103.126 L428.536,107.195 Q426.42,106.658 424.524,106.536 Q422.628,106.415 421.001,106.623 Q418.656,106.923 417.496,107.937 Q416.337,108.952 416.555,110.657 Q416.681,111.645 417.179,112.231 Q417.678,112.817 418.448,113.142 Q419.218,113.467 420.18,113.6 Q421.142,113.733 422.215,113.812 Q423.907,113.95 425.466,114.213 Q427.026,114.477 428.293,115.142 Q429.559,115.807 430.404,117.028 Q431.25,118.249 431.51,120.283 Q431.778,122.375 431.198,124.005 Q430.619,125.634 429.323,126.814 Q428.026,127.994 426.054,128.739 Q424.082,129.483 421.66,129.793 Q419.549,130.063 417.451,129.908 Q415.354,129.753 413.901,129.171 L413.389,125.16 Q415.413,125.748 417.282,125.893 Q419.152,126.038 421.089,125.79 Q422.213,125.646 423.274,125.323 Q424.336,125.001 425.141,124.445 Q425.946,123.889 426.371,123.057 Q426.796,122.225 426.653,121.101 z" fill-opacity="0" stroke="#323330" stroke-width="1.5"/>
    </g>
    <g>
      <path d="M448.353,125.887 L443.607,126.494 L440.799,104.543 L432.43,105.614 L431.922,101.642 L453.388,98.897 L453.896,102.868 L445.546,103.936 z" fill="#323330"/>
      <path d="M448.353,125.887 L443.607,126.494 L440.799,104.543 L432.43,105.614 L431.922,101.642 L453.388,98.897 L453.896,102.868 L445.546,103.936 z" fill-opacity="0" stroke="#323330" stroke-width="1.5"/>
    </g>
    <g>
      <path d="M472.248,116.116 L462.484,117.365 L460.791,124.296 L455.734,124.942 L462.706,97.705 L467.046,97.15 L480.649,121.756 L475.631,122.398 z M465.655,103.668 Q464.819,107.91 464.103,110.778 L463.506,113.197 L470.21,112.34 L469.023,110.149 Q467.606,107.534 465.732,103.658 z" fill="#323330"/>
      <path d="M472.248,116.116 L462.484,117.365 L460.791,124.296 L455.734,124.942 L462.706,97.705 L467.046,97.15 L480.649,121.756 L475.631,122.398 z M465.655,103.668 Q464.819,107.91 464.103,110.778 L463.506,113.197 L470.21,112.34 L469.023,110.149 Q467.606,107.534 465.732,103.658 z" fill-opacity="0" stroke="#323330" stroke-width="1.5"/>
    </g>
    <g>
      <path d="M485.761,94.756 L488.568,116.706 L500.696,115.155 L501.204,119.127 L484.33,121.285 L481.014,95.363 z" fill="#323330"/>
      <path d="M485.761,94.756 L488.568,116.706 L500.696,115.155 L501.204,119.127 L484.33,121.285 L481.014,95.363 z" fill-opacity="0" stroke="#323330" stroke-width="1.5"/>
    </g>
  </g>
</svg>
